<svg width="24" height="24" viewBox="0 0 24 24" fill="none" xmlns="http://www.w3.org/2000/svg">
<path d="M18 14.0001V6.00008M18 14.0001L16.14 15.86C16.0469 15.9532 15.9642 16.0535 15.8938 16.1648C15.5598 16.6929 14.5302 18.3994 14.1463 19.9427C13.9849 20.5917 13.6743 21.2839 13.0163 21.4034C12.643 21.4713 12.2926 21.4478 11.9919 21.3867C11.3366 21.2536 11 20.5985 11 19.9298V16.0001M18 14.0001C18 14.5524 18.4477 15.0001 19 15.0001H20C20.5523 15.0001 21 14.5524 21 14.0001L21 6.00008C21 5.44779 20.5523 5.00008 20 5.00008H19C18.4477 5.00008 18 5.44779 18 6.00008M18 6.00008L14.1545 4.19046C13.8881 4.0651 13.5973 4.0001 13.3029 4.0001H10.5L8.23607 4.00009C7.47853 4.00009 6.786 4.42809 6.44721 5.10566L3.33087 11.3383C3.11736 11.7654 3.06365 12.2547 3.17944 12.7178L3.62127 14.4852C3.84385 15.3755 4.64381 16.0001 5.56154 16.0001L7.25 16.0001L11 16.0001M11 16.0001H12" stroke="#09090B" stroke-width="1.5" stroke-linecap="round" stroke-linejoin="round"/>
</svg>
