<svg width="24" height="25" viewBox="0 0 24 25" fill="none" xmlns="http://www.w3.org/2000/svg">
<path d="M4 20.2311H3.25C3.25 20.6453 3.58579 20.9811 4 20.9811V20.2311ZM20 20.9811C20.4142 20.9811 20.75 20.6453 20.75 20.2311C20.75 19.8169 20.4142 19.4811 20 19.4811V20.9811ZM4 16.2311L3.46967 15.7007C3.32902 15.8414 3.25 16.0322 3.25 16.2311H4ZM14.8686 5.36242L14.3383 4.83209L14.3383 4.83209L14.8686 5.36242ZM17.1313 5.36242L16.601 5.89275V5.89275L17.1313 5.36242ZM18.8686 7.09968L19.3989 6.56935V6.56935L18.8686 7.09968ZM18.8686 9.36242L18.3383 8.83209V8.83209L18.8686 9.36242ZM8 20.231L8 20.981C8.19892 20.981 8.38968 20.902 8.53033 20.7614L8 20.231ZM19.5369 7.92208L20.2502 7.69031V7.69031L19.5369 7.92208ZM19.5369 8.54003L18.8236 8.30827L19.5369 8.54003ZM15.691 4.69421L15.4592 3.98091L15.691 4.69421ZM16.3091 4.69421L16.5408 3.98091L16.3091 4.69421ZM12.5303 7.70074C12.2374 7.40785 11.7626 7.40785 11.4697 7.70074C11.1768 7.99364 11.1768 8.46851 11.4697 8.7614L12.5303 7.70074ZM15.4697 12.7614C15.7626 13.0543 16.2374 13.0543 16.5303 12.7614C16.8232 12.4685 16.8232 11.9936 16.5303 11.7007L15.4697 12.7614ZM4 20.9811H20V19.4811H4V20.9811ZM4.75 20.2311V16.2311H3.25V20.2311H4.75ZM4.53033 16.7614L15.399 5.89275L14.3383 4.83209L3.46967 15.7007L4.53033 16.7614ZM16.601 5.89275L18.3383 7.63001L19.3989 6.56935L17.6617 4.83209L16.601 5.89275ZM18.3383 8.83209L7.46967 19.7007L8.53033 20.7614L19.399 9.89275L18.3383 8.83209ZM8 19.481L4 19.4811L4 20.9811L8 20.981L8 19.481ZM18.3383 7.63001C18.545 7.83677 18.6678 7.96037 18.7517 8.05915C18.8299 8.15124 18.8293 8.17136 18.8236 8.15384L20.2502 7.69031C20.1703 7.44447 20.0336 7.25139 19.8952 7.08837C19.7625 6.93204 19.5882 6.75861 19.3989 6.56935L18.3383 7.63001ZM19.399 9.89275C19.5882 9.70349 19.7625 9.53006 19.8952 9.37372C20.0336 9.2107 20.1703 9.01763 20.2502 8.77179L18.8236 8.30827C18.8293 8.29077 18.8298 8.31088 18.7517 8.40296C18.6678 8.50174 18.5451 8.62534 18.3383 8.83209L19.399 9.89275ZM18.8236 8.15384C18.8399 8.20405 18.8399 8.25806 18.8236 8.30827L20.2502 8.7718C20.3644 8.42032 20.3644 8.04179 20.2502 7.69031L18.8236 8.15384ZM15.399 5.89275C15.6057 5.686 15.7293 5.56324 15.8281 5.47939C15.9201 5.40123 15.9403 5.40182 15.9228 5.4075L15.4592 3.98091C15.2134 4.06079 15.0204 4.19747 14.8573 4.33586C14.701 4.46857 14.5276 4.64282 14.3383 4.83209L15.399 5.89275ZM17.6617 4.83209C17.4725 4.64287 17.299 4.46861 17.1428 4.33592C16.9798 4.19752 16.7867 4.0608 16.5408 3.98091L16.0773 5.4075C16.0598 5.4018 16.0798 5.40118 16.1719 5.47934C16.2707 5.5632 16.3942 5.68596 16.601 5.89275L17.6617 4.83209ZM15.9228 5.4075C15.973 5.39119 16.0271 5.39119 16.0773 5.4075L16.5408 3.98091C16.1894 3.86671 15.8107 3.86671 15.4592 3.98091L15.9228 5.4075ZM11.4697 8.7614L15.4697 12.7614L16.5303 11.7007L12.5303 7.70074L11.4697 8.7614Z" fill="#202020"/>
</svg>
