<svg width="24" height="24" viewBox="0 0 24 24" fill="none" xmlns="http://www.w3.org/2000/svg">
<path d="M6 9.99988V17.9999M6 9.99988L7.85995 8.13997C7.95309 8.04683 8.03578 7.94651 8.10618 7.83519C8.44017 7.30709 9.46981 5.60064 9.85371 4.05725C10.0151 3.40834 10.3257 2.71614 10.9837 2.59655C11.357 2.52869 11.7074 2.55222 12.0081 2.61331C12.6634 2.74643 13 3.40154 13 4.07023V7.99992M6 9.99988C6 9.44759 5.55228 8.99992 5 8.99992H4C3.44772 8.99992 3 9.44764 3 9.99992V17.9999C3 18.5522 3.44772 18.9999 4 18.9999H5C5.55228 18.9999 6 18.5522 6 17.9999M6 17.9999L9.84548 19.8095C10.1119 19.9349 10.4027 19.9999 10.6971 19.9999H13.5L15.7639 19.9999C16.5215 19.9999 17.214 19.5719 17.5528 18.8943L20.6691 12.6617C20.8826 12.2346 20.9364 11.7453 20.8206 11.2822L20.3787 9.51484C20.1561 8.62451 19.3562 7.99992 18.4385 7.99991L16.75 7.9999L13 7.99992M13 7.99992H12" stroke="#09090B" stroke-width="1.5" stroke-linecap="round" stroke-linejoin="round"/>
</svg>
