<svg width="24" height="25" viewBox="0 0 24 25" fill="none" xmlns="http://www.w3.org/2000/svg">
<path d="M9 9.23095V6.35095C9 4.62782 10.3 3.23096 11.9037 3.23096C12.7277 3.23096 13.4711 3.59975 13.9996 4.19209M4 18.0309V12.4309C4 11.3108 4 10.7508 4.21799 10.323C4.40973 9.94667 4.71547 9.64069 5.0918 9.44894C5.51962 9.23096 6.08009 9.23096 7.2002 9.23096H16.8002C17.9203 9.23096 18.48 9.23096 18.9078 9.44894C19.2841 9.64069 19.5905 9.94667 19.7822 10.323C20.0002 10.7508 20 11.3108 20 12.4309V18.0309C20 19.151 20.0002 19.7112 19.7822 20.139C19.5905 20.5153 19.2841 20.8212 18.9078 21.0129C18.48 21.2309 17.9203 21.231 16.8002 21.231H7.2002C6.08009 21.231 5.51962 21.2309 5.0918 21.0129C4.71547 20.8212 4.40973 20.5153 4.21799 20.139C4 19.7112 4 19.151 4 18.0309Z" stroke="#202020" stroke-width="1.5" stroke-linecap="round" stroke-linejoin="round"/>
</svg>
