<svg width="24" height="25" viewBox="0 0 24 25" fill="none" xmlns="http://www.w3.org/2000/svg">
<path d="M7.5 20.231C7.5 20.5276 7.41203 20.8176 7.24721 21.0643C7.08238 21.311 6.84811 21.5032 6.57403 21.6168C6.29994 21.7303 5.99834 21.76 5.70737 21.7021C5.41639 21.6443 5.14912 21.5014 4.93934 21.2916C4.72956 21.0818 4.5867 20.8146 4.52882 20.5236C4.47094 20.2326 4.50065 19.931 4.61418 19.6569C4.72771 19.3828 4.91997 19.1486 5.16665 18.9838C5.41332 18.8189 5.70333 18.731 6 18.731C6.39783 18.731 6.77936 18.889 7.06066 19.1703C7.34197 19.4516 7.5 19.8331 7.5 20.231ZM18 18.731C17.7033 18.731 17.4133 18.8189 17.1666 18.9838C16.92 19.1486 16.7277 19.3828 16.6142 19.6569C16.5007 19.931 16.4709 20.2326 16.5288 20.5236C16.5867 20.8146 16.7296 21.0818 16.9393 21.2916C17.1491 21.5014 17.4164 21.6443 17.7074 21.7021C17.9983 21.76 18.2999 21.7303 18.574 21.6168C18.8481 21.5032 19.0824 21.311 19.2472 21.0643C19.412 20.8176 19.5 20.5276 19.5 20.231C19.5 19.8331 19.342 19.4516 19.0607 19.1703C18.7794 18.889 18.3978 18.731 18 18.731ZM12 18.731C11.7033 18.731 11.4133 18.8189 11.1666 18.9838C10.92 19.1486 10.7277 19.3828 10.6142 19.6569C10.5006 19.931 10.4709 20.2326 10.5288 20.5236C10.5867 20.8146 10.7296 21.0818 10.9393 21.2916C11.1491 21.5014 11.4164 21.6443 11.7074 21.7021C11.9983 21.76 12.2999 21.7303 12.574 21.6168C12.8481 21.5032 13.0824 21.311 13.2472 21.0643C13.412 20.8176 13.5 20.5276 13.5 20.231C13.5 19.8331 13.342 19.4516 13.0607 19.1703C12.7794 18.889 12.3978 18.731 12 18.731Z" fill="#202020"/>
</svg>
