<svg width="24" height="25" viewBox="0 0 24 25" fill="none" xmlns="http://www.w3.org/2000/svg">
<path d="M20.7288 12.6031C20.4569 12.4143 20.4353 12.0199 20.6851 11.8026L20.7216 11.8523C20.8941 12.0869 20.9296 12.3953 20.8149 12.6629L20.7288 12.6031ZM12.6302 12.9167C12.2822 12.9167 12 12.6097 12 12.2309C12 11.8522 12.2822 11.5452 12.6302 11.5452V12.9167ZM16.7913 7.6945C17.0781 7.44488 17.5169 7.49348 17.7421 7.7998L20.6851 11.8026L20.8149 12.6629L20.6488 12.6988C20.5502 12.7201 20.4489 12.7263 20.3484 12.7173L20.15 12.6996C19.8643 12.674 19.6034 12.527 19.4336 12.2959L16.6943 8.57019C16.4938 8.29753 16.536 7.91669 16.7913 7.6945ZM20.8149 12.6629L17.7489 16.6747C17.5187 16.976 17.0819 17.0203 16.7958 16.7714C16.538 16.5469 16.4954 16.1622 16.6979 15.8868L19.0943 12.6274C19.4269 12.1751 20.0667 12.0851 20.5111 12.4283L20.8149 12.6629ZM20.1929 12.2309C20.1929 12.6097 19.8859 12.9167 19.5071 12.9167H12.6302V11.5452H19.5071C19.8859 11.5452 20.1929 11.8522 20.1929 12.2309Z" fill="#202020"/>
<path d="M14 8.91552V8.27831C14 6.89119 14 6.19762 13.5655 5.71806C13.1311 5.2385 12.3994 5.12449 10.9361 4.89644L9.40419 4.65771C6.43136 4.19441 4.94494 3.96277 3.97247 4.73306C3 5.50337 3 6.91241 3 9.7305V14.7314C3 17.5495 3 18.9586 3.97247 19.7289C4.94494 20.4992 6.43136 20.2675 9.40419 19.8042L10.9361 19.5655C12.3994 19.3374 13.1311 19.2234 13.5655 18.7438C14 18.2643 14 17.5707 14 16.1836V15.716" stroke="#202020" stroke-width="1.5" stroke-linecap="round"/>
</svg>
