<svg width="34" height="34" viewBox="0 0 34 34" fill="none" xmlns="http://www.w3.org/2000/svg">
<path d="M17 33C25.8366 33 33 25.8366 33 17C33 8.16344 25.8366 1 17 1C8.16344 1 1 8.16344 1 17C1 25.8366 8.16344 33 17 33Z" fill="url(#paint0_linear_14_1313)" stroke="white"/>
<path d="M14.0667 24.3334C13.5483 24.3334 13.6364 24.1377 13.4576 23.6441L11.9333 18.6275L23.6667 11.6667" fill="#C8DAEA"/>
<path d="M14.0667 24.3335C14.4667 24.3335 14.6434 24.1505 14.8667 23.9335L17 21.8591L14.3389 20.2544" fill="#A9C9DD"/>
<path d="M14.3386 20.2547L20.7866 25.0185C21.5224 25.4245 22.0535 25.2143 22.2368 24.3354L24.8614 11.967C25.1301 10.8896 24.4507 10.401 23.7468 10.7206L8.33484 16.6634C7.28283 17.0853 7.28896 17.6722 8.14308 17.9338L12.0981 19.1682L21.2545 13.3915C21.6868 13.1294 22.0835 13.2703 21.7579 13.5593" fill="url(#paint1_linear_14_1313)"/>
<defs>
<linearGradient id="paint0_linear_14_1313" x1="13.0016" y1="2.3344" x2="5.0016" y2="21" gradientUnits="userSpaceOnUse">
<stop stop-color="#37AEE2"/>
<stop offset="1" stop-color="#1E96C8"/>
</linearGradient>
<linearGradient id="paint1_linear_14_1313" x1="14.997" y1="17.9828" x2="16.7066" y2="23.5128" gradientUnits="userSpaceOnUse">
<stop stop-color="#EFF7FC"/>
<stop offset="1" stop-color="white"/>
</linearGradient>
</defs>
</svg>
