<svg width="24" height="24" viewBox="0 0 24 24" fill="none" xmlns="http://www.w3.org/2000/svg">
<path d="M4.37818 15.2001L5.02769 15.5751L4.37818 15.2001ZM9.22792 6.80011L8.5784 6.42511L9.22792 6.80011ZM14.7708 6.80011L15.4203 6.42511L14.7708 6.80011ZM19.6205 15.2001L20.27 14.8251L19.6205 15.2001ZM11.1856 4.17291L11.4906 4.85807V4.85807L11.1856 4.17291ZM12.8127 4.17291L12.5077 4.85807L12.8127 4.17291ZM3.89575 19.6181L3.45491 20.2249H3.45491L3.89575 19.6181ZM3.08208 18.2091L3.82797 18.1307L3.08208 18.2091ZM20.1029 19.6181L20.5437 20.2249L20.1029 19.6181ZM20.9166 18.2091L21.6625 18.2875L20.9166 18.2091ZM12.0491 16.0001H12.7991C12.7991 15.5858 12.4633 15.2501 12.0491 15.2501V16.0001ZM12.0491 16.1001L12.0489 16.8501C12.2478 16.8501 12.4386 16.7711 12.5793 16.6305C12.72 16.4898 12.7991 16.299 12.7991 16.1001H12.0491ZM11.9495 16.1H11.1995C11.1995 16.5142 11.5351 16.8499 11.9493 16.85L11.9495 16.1ZM11.9495 16.0001V15.2501C11.5353 15.2501 11.1995 15.5858 11.1995 16.0001H11.9495ZM12.7493 9.00006C12.7493 8.58584 12.4135 8.25006 11.9993 8.25006C11.5851 8.25006 11.2493 8.58584 11.2493 9.00006H12.7493ZM11.2493 13.0001C11.2493 13.4143 11.5851 13.7501 11.9993 13.7501C12.4135 13.7501 12.7493 13.4143 12.7493 13.0001H11.2493ZM16.8491 19.2501H7.14966V20.7501H16.8491V19.2501ZM5.02769 15.5751L9.87744 7.17511L8.5784 6.42511L3.72866 14.8251L5.02769 15.5751ZM14.1212 7.17511L18.971 15.5751L20.27 14.8251L15.4203 6.42511L14.1212 7.17511ZM9.87744 7.17511C10.3396 6.37468 10.6608 5.81976 10.9377 5.42765C11.217 5.03235 11.3826 4.90617 11.4906 4.85807L10.8805 3.48775C10.3949 3.70397 10.0364 4.10379 9.71259 4.56221C9.38651 5.02383 9.0257 5.65035 8.5784 6.42511L9.87744 7.17511ZM15.4203 6.42511C14.9729 5.6503 14.6121 5.02378 14.2859 4.56213C13.9619 4.10369 13.6034 3.70394 13.1178 3.48775L12.5077 4.85807C12.6158 4.90619 12.7815 5.03244 13.0608 5.42773C13.3378 5.81981 13.6591 6.37474 14.1212 7.17511L15.4203 6.42511ZM11.4906 4.85807C11.8143 4.71398 12.1841 4.71398 12.5077 4.85807L13.1178 3.48775C12.4058 3.17075 11.5925 3.17075 10.8805 3.48775L11.4906 4.85807ZM7.14966 19.2501C6.22544 19.2501 5.5843 19.2493 5.1063 19.2055C4.62442 19.1612 4.43231 19.0809 4.33659 19.0113L3.45491 20.2249C3.88493 20.5373 4.41034 20.6479 4.96926 20.6992C5.53206 20.7508 6.25501 20.7501 7.14966 20.7501V19.2501ZM3.72866 14.8251C3.28133 15.5999 2.91922 16.2256 2.68254 16.7389C2.4475 17.2486 2.28063 17.7589 2.33619 18.2875L3.82797 18.1307C3.8156 18.013 3.84206 17.8064 4.04469 17.367C4.24569 16.9311 4.56559 16.3755 5.02769 15.5751L3.72866 14.8251ZM4.33659 19.0113C4.04987 18.803 3.86499 18.4828 3.82797 18.1307L2.33619 18.2875C2.41767 19.0627 2.8245 19.7668 3.45491 20.2249L4.33659 19.0113ZM16.8491 20.7501C17.7438 20.7501 18.4667 20.7508 19.0295 20.6992C19.5884 20.6479 20.1137 20.5373 20.5437 20.2249L19.6621 19.0113C19.5663 19.0809 19.3743 19.1612 18.8924 19.2055C18.4145 19.2493 17.7734 19.2501 16.8491 19.2501V20.7501ZM18.971 15.5751C19.4331 16.3755 19.753 16.9311 19.954 17.367C20.1566 17.8064 20.1831 18.013 20.1707 18.1307L21.6625 18.2875C21.718 17.7589 21.5512 17.2486 21.3161 16.7389C21.0795 16.2256 20.7173 15.5999 20.27 14.8251L18.971 15.5751ZM20.5437 20.2249C21.1742 19.7668 21.581 19.0627 21.6625 18.2875L20.1707 18.1307C20.1337 18.4828 19.9488 18.803 19.6621 19.0113L20.5437 20.2249ZM11.2991 16.0001V16.1001H12.7991V16.0001H11.2991ZM12.0493 15.3501L11.9497 15.35L11.9493 16.85L12.0489 16.8501L12.0493 15.3501ZM12.6995 16.1V16.0001H11.1995V16.1H12.6995ZM11.9495 16.7501H12.0491V15.2501H11.9495V16.7501ZM11.2493 9.00006V13.0001H12.7493V9.00006H11.2493Z" fill="#1B1B1B"/>
</svg>
