<svg width="34" height="34" viewBox="0 0 34 34" fill="none" xmlns="http://www.w3.org/2000/svg">
<path d="M17 1C25.8366 1 33 8.16344 33 17C33 25.8366 25.8366 33 17 33C8.16344 33 1 25.8366 1 17C1 8.16344 8.16344 1 17 1Z" fill="#7F4DA0" stroke="white"/>
<path d="M21.2626 14.9722C21.1848 14.34 20.9905 13.8436 20.6454 13.4039C20.1973 12.8377 19.6246 12.4986 18.7769 12.2975C18.2244 12.1635 18.0011 12.1789 17.8013 12.3614C17.6152 12.5324 17.5788 12.8752 17.7211 13.0972C17.8211 13.2584 17.9365 13.3161 18.2575 13.3791C18.6849 13.4577 18.9802 13.5598 19.2489 13.7134C19.8192 14.0427 20.0848 14.558 20.1132 15.3922C20.1265 15.7839 20.1604 15.9043 20.2972 16.0433C20.5507 16.2972 21.002 16.2478 21.1934 15.9439C21.2637 15.8294 21.2744 15.7795 21.2818 15.5136C21.2867 15.3489 21.2796 15.1038 21.2626 14.9722Z" fill="white"/>
<path d="M23.4965 15.685C23.3839 13.7481 22.6263 12.1897 21.2704 11.0933C20.5065 10.4772 19.5831 10.0536 18.571 9.84759C18.2002 9.77391 17.5175 9.71418 17.4004 9.74835C17.2899 9.77998 17.1336 9.89964 17.0639 10.0079C16.9903 10.1252 16.9737 10.3872 17.0365 10.5388C17.1379 10.7921 17.3267 10.8816 17.8551 10.9279C18.6699 10.9991 19.5102 11.2854 20.1452 11.7091C20.8701 12.1916 21.4463 12.8516 21.8191 13.627C22.1411 14.2933 22.3392 15.2535 22.3337 16.1134C22.3319 16.4244 22.3799 16.6 22.505 16.7284C22.6938 16.9258 22.969 16.969 23.2118 16.8379C23.481 16.6963 23.5439 16.4479 23.4965 15.685Z" fill="white"/>
<path d="M25.9682 23.1441C25.9304 23.0334 25.842 22.8626 25.7788 22.7646C25.3809 22.1637 23.2431 20.4907 22.1757 19.9435C21.5663 19.6305 21.1147 19.5261 20.78 19.6241C20.42 19.7254 20.2305 19.8929 19.6274 20.6425C19.3843 20.9429 19.1348 21.2244 19.0685 21.2687C18.9043 21.3825 18.5822 21.4743 18.3548 21.4743C17.8275 21.4711 16.8707 21.1295 16.1349 20.6804C15.5633 20.3326 14.8308 19.7096 14.2686 19.0928C13.6055 18.3686 13.154 17.7298 12.7971 17.0087C12.3361 16.0821 12.2192 15.5159 12.4118 15.1016C12.4592 14.9973 12.5224 14.8866 12.5508 14.8518C12.5792 14.8202 12.8761 14.5767 13.2044 14.311C13.8487 13.7987 13.9528 13.6817 14.0728 13.3306C14.2244 12.8847 14.1834 12.4293 13.9497 11.9707C13.7697 11.6228 13.2992 10.8638 12.9582 10.3736C12.5066 9.72848 11.3824 8.34959 11.1582 8.16295C10.754 7.83407 10.2362 7.77711 9.66454 7.99854C9.06146 8.23257 7.93094 9.14338 7.44778 9.77907C7.01201 10.3546 6.8447 10.7626 6.81941 11.3002C6.79732 11.743 6.8352 11.9264 7.06888 12.4925C8.89724 16.9328 11.6255 20.478 15.3739 23.2927C17.3317 24.7633 19.3621 25.8829 21.4684 26.6483C22.6968 27.0941 23.2304 27.1163 23.8588 26.7495C24.1241 26.5913 24.7809 25.9177 25.1472 25.4275C25.7535 24.6115 25.9777 24.2352 26.0409 23.9347C26.0851 23.7292 26.0503 23.3718 25.9682 23.1441Z" fill="white"/>
<path d="M25.7703 16.13C25.7298 15.0344 25.5454 14.1357 25.1607 13.1337C24.781 12.1481 24.3966 11.505 23.6708 10.6351C22.9845 9.8195 22.4515 9.3538 21.6062 8.83541C20.4268 8.11315 18.9914 7.63518 17.3829 7.43417C16.8343 7.36392 16.7102 7.36894 16.5419 7.48123C16.2158 7.69395 16.2202 8.22454 16.5473 8.43407C16.6556 8.50073 16.7517 8.52501 17.1905 8.58244C17.8641 8.67313 18.2972 8.75859 18.8112 8.89882C20.8265 9.44974 22.3763 10.5758 23.4124 12.2475C24.2795 13.6408 24.6394 15.0342 24.5883 16.8139C24.5706 17.4155 24.5835 17.5214 24.6754 17.666C24.8516 17.9354 25.316 17.9887 25.5543 17.7651C25.7026 17.6289 25.7305 17.5266 25.7597 17.0116C25.7737 16.743 25.7767 16.3464 25.7703 16.13Z" fill="white"/>
</svg>
